<svg id="Layer_1" data-name="Layer 1" xmlns="http://www.w3.org/2000/svg" viewBox="0 0 226.46 60"><defs><style>.cls-1{fill:#fff;}.cls-2{fill:#d99578;}.cls-3{fill:#fefefe;}</style></defs><path class="cls-1" d="M61.55,45.91a7.65,7.65,0,0,0,.56-1.07,7.36,7.36,0,0,0,.5-1.78c.16-1.05.34-2.23.55-3.54l.63-4.12c.21-1.44.43-2.91.65-4.42s.42-3,.63-4.44.39-2.87.58-4.23.35-2.59.5-3.71.28-2.1.38-2.93.16-1.46.21-1.88h2.85L83.72,40.21l14-26.42h2.14l3.68,26.68c.11.84.22,1.56.34,2.16s.24,1.11.36,1.54a8,8,0,0,0,.35,1,5.8,5.8,0,0,0,.32.69V46H99.26v-.09a3.38,3.38,0,0,0,.22-.81,8.48,8.48,0,0,0,.1-1.35c0-.19,0-.39,0-.59s0-.42-.06-.66L96.63,21,83.38,45.91l-1.55-.18-13.34-25q-.78,5.33-1.37,9.84c-.16,1.29-.33,2.57-.49,3.85s-.31,2.48-.44,3.59S66,40.11,65.89,41s-.12,1.47-.12,1.87,0,1,0,1.35.06.72.09,1,.09.59.13.83H61.55Z"/><path class="cls-1" d="M107.42,34.46A11.61,11.61,0,0,1,111,26a11.91,11.91,0,0,1,3.9-2.5,13.08,13.08,0,0,1,4.83-.89,13.45,13.45,0,0,1,4.77.84,11.75,11.75,0,0,1,3.9,2.39A11,11,0,0,1,131,29.6a12.68,12.68,0,0,1,.95,5,12.48,12.48,0,0,1-.81,4.45,11,11,0,0,1-2.38,3.77,11.62,11.62,0,0,1-3.85,2.62,14.3,14.3,0,0,1-10,.14A11.36,11.36,0,0,1,111,43.19a11.17,11.17,0,0,1-2.63-3.76A12.34,12.34,0,0,1,107.42,34.46Zm12.73,10.3a6.9,6.9,0,0,0,2.93-.62,6.65,6.65,0,0,0,2.31-1.82,8.84,8.84,0,0,0,1.5-2.9,12.81,12.81,0,0,0,.54-3.86,18.42,18.42,0,0,0-.52-4.51,11,11,0,0,0-1.54-3.59,7.09,7.09,0,0,0-6.18-3.22,6.82,6.82,0,0,0-2.92.61A6.65,6.65,0,0,0,114,26.64a8.37,8.37,0,0,0-1.51,2.86,12.7,12.7,0,0,0-.54,3.85,18,18,0,0,0,.53,4.52A11.52,11.52,0,0,0,114,41.5a7.55,7.55,0,0,0,2.57,2.4A7.16,7.16,0,0,0,120.15,44.76Z"/><path class="cls-1" d="M138.32,44.25H145a26.92,26.92,0,0,0,3.24-.19c1-.13,1.84-.28,2.56-.44a17.43,17.43,0,0,0,2.29-.65l-1,3.21-.93-.06-1.39-.06c-.49,0-.95,0-1.39-.05H132.93v-.56l14.51-20.69h-4.69a27.8,27.8,0,0,0-3.43.2q-1.56.21-2.7.45a20.32,20.32,0,0,0-2.43.63l1.46-3.21c.18,0,.49.05.93.07l1.41.05c.49,0,.95,0,1.38,0H152.9v.4Z"/><path class="cls-1" d="M156.68,31.78q0-1.91-.06-3.33c0-.95-.08-1.77-.14-2.46s-.12-1.27-.2-1.73a10.68,10.68,0,0,0-.26-1.17V23h5.19v.09a9.11,9.11,0,0,0-.24,1.17c-.08.46-.15,1-.21,1.73s-.1,1.51-.13,2.46,0,2.06,0,3.33v5.44c0,1.27,0,2.38,0,3.33s.07,1.77.13,2.46.13,1.27.21,1.73a9.11,9.11,0,0,0,.24,1.17V46H156v-.09a10.68,10.68,0,0,0,.26-1.17c.08-.46.15-1,.2-1.73s.1-1.51.14-2.46.06-2.06.06-3.33Zm-.48-15.59a2.45,2.45,0,0,1,.19-.93,2.67,2.67,0,0,1,.51-.76,2.34,2.34,0,0,1,.75-.52,2.5,2.5,0,0,1,1.91,0,2.55,2.55,0,0,1,.77.52,2.67,2.67,0,0,1,.51.76,2.28,2.28,0,0,1,.19.93,2.37,2.37,0,0,1-2.42,2.43,2.32,2.32,0,0,1-1-.19,2.34,2.34,0,0,1-.75-.52,2.54,2.54,0,0,1-.51-.76A2.49,2.49,0,0,1,156.2,16.19Z"/><path class="cls-1" d="M170.49,38.14a6.64,6.64,0,0,0,1.18,4.36,4,4,0,0,0,3.18,1.39,5.08,5.08,0,0,0,1.61-.3,14.59,14.59,0,0,0,1.86-.81,19,19,0,0,0,1.91-1.18A16.68,16.68,0,0,0,182,40.16c0-.43,0-.89,0-1.38v-7c0-1.27,0-2.38-.05-3.33s-.08-1.77-.14-2.46-.12-1.27-.2-1.73a10.68,10.68,0,0,0-.26-1.17V23h5.19v.09a11,11,0,0,0-.25,1.17c-.07.46-.14,1-.2,1.73s-.1,1.51-.13,2.46-.05,2.06-.05,3.33v5.44c0,1.27,0,2.38.05,3.33s.07,1.77.13,2.46.13,1.27.2,1.73a11,11,0,0,0,.25,1.17V46h-5.19v-.09c.09-.37.19-.85.28-1.44a20.69,20.69,0,0,0,.22-2.29c-.62.53-1.28,1-2,1.55a18.15,18.15,0,0,1-2.22,1.37,14.19,14.19,0,0,1-2.34,1,7.64,7.64,0,0,1-2.32.37,6.6,6.6,0,0,1-3-.61,5.65,5.65,0,0,1-2-1.59A6.26,6.26,0,0,1,166.91,42a9.73,9.73,0,0,1-.35-2.58V31.78c0-1.27,0-2.38-.05-3.33s-.07-1.77-.13-2.46-.13-1.27-.2-1.73a11,11,0,0,0-.25-1.17V23h5.19v.09a11,11,0,0,0-.25,1.17c-.07.46-.14,1-.2,1.73s-.11,1.51-.14,2.46,0,2.06,0,3.33Z"/><path class="cls-1" d="M206.9,30.86a9.62,9.62,0,0,0-.3-2.56,5,5,0,0,0-.88-1.78,3.47,3.47,0,0,0-1.38-1.06,4.55,4.55,0,0,0-1.8-.35,4.87,4.87,0,0,0-1.5.27,10.79,10.79,0,0,0-1.72.73,18.27,18.27,0,0,0-3.45,2.37c0,.48,0,1,0,1.54v7.2c0,1.27,0,2.38,0,3.33S196,42.32,196,43s.12,1.27.2,1.73a8.93,8.93,0,0,0,.25,1.17V46h-5.19v-.09c.09-.31.17-.7.26-1.17s.15-1,.2-1.73.09-1.51.13-2.46.06-2.06.06-3.33V31.78q0-1.91-.06-3.33c0-.95-.08-1.77-.13-2.46s-.12-1.27-.2-1.73-.17-.86-.26-1.17V23h5.19v.09a6.63,6.63,0,0,0-.29,1.31q-.09.81-.21,2c.6-.48,1.24-.95,1.93-1.41A19,19,0,0,1,200,23.76a13.49,13.49,0,0,1,2.19-.87,7.21,7.21,0,0,1,2.17-.34,6.86,6.86,0,0,1,2.27.34,5.61,5.61,0,0,1,1.73.92,5.43,5.43,0,0,1,1.25,1.37,6.4,6.4,0,0,1,.77,1.68q.93-.78,2-1.56a21.9,21.9,0,0,1,2.25-1.38,15.54,15.54,0,0,1,2.36-1,7.85,7.85,0,0,1,2.35-.38,6.55,6.55,0,0,1,3,.61,5.65,5.65,0,0,1,2,1.59A6.22,6.22,0,0,1,225.46,27a9.37,9.37,0,0,1,.35,2.57v7.64c0,1.27,0,2.38.05,3.33s.07,1.77.13,2.46a17.1,17.1,0,0,0,.22,1.73,11,11,0,0,0,.25,1.17V46h-5.21v-.09a10.68,10.68,0,0,0,.26-1.17c.08-.46.15-1,.21-1.73s.11-1.51.14-2.46,0-2.06,0-3.33V30.86a6.58,6.58,0,0,0-1.19-4.36,4,4,0,0,0-3.19-1.39,5.15,5.15,0,0,0-1.54.27,11.47,11.47,0,0,0-1.74.74,20.43,20.43,0,0,0-1.79,1.09,17,17,0,0,0-1.69,1.32,3.17,3.17,0,0,1,.05.53v8.16c0,1.27,0,2.38.05,3.33S211,42.32,211,43s.12,1.27.2,1.73a10.68,10.68,0,0,0,.26,1.17V46h-5.19v-.09a11,11,0,0,0,.25-1.17c.07-.46.14-1,.2-1.73s.1-1.51.13-2.46.05-2.06.05-3.33Z"/><path class="cls-2" d="M0,44.65V15.35a3,3,0,0,1,1.82-2.26q10.53-6,21-12.16A14.4,14.4,0,0,1,25.31,0h1.6c2.22.47,4,1.84,5.92,2.94,6,3.41,11.86,6.9,17.82,10.29a2.85,2.85,0,0,1,1.57,2.12v29.3a3,3,0,0,1-1.83,2.26q-10.53,6-21,12.16a14.4,14.4,0,0,1-2.49.93h-1.6c-2.23-.47-4-1.84-5.92-2.94-6-3.41-11.86-6.9-17.82-10.29A2.85,2.85,0,0,1,0,44.65Z"/><path class="cls-3" d="M30.3,54.34V46.43q0-4.57,0-9.17a5.29,5.29,0,0,0,0-.89A1.16,1.16,0,0,0,29,35.24a1.08,1.08,0,0,0-1.12,1.24c0,1.36,0,2.73,0,4.09q0,7.13,0,14.25a1.85,1.85,0,0,1-1.79,1.78,1.8,1.8,0,0,1-1.7-1.78c0-5.81,0-11.63,0-17.44a10.1,10.1,0,0,0,0-1.1,1,1,0,0,0-1.1-1,1.14,1.14,0,0,0-1.23.94,3.64,3.64,0,0,0-.05,1v16c0,1.17,0,1.05-1.06.6-1.9-.78-2.52-2-2.42-4.11.2-4.27.06-8.57.06-12.85,0-.66-.08-1.29-.8-1.56-.93-.34-1.6.24-1.61,1.39,0,3.29,0,6.58,0,9.87v3.29c0,1.16,0,1.06-1.08.6C13.44,49.78,13,48.73,13,47c.13-5.64.05-11.29,0-16.94a1.94,1.94,0,0,1,.59-1.6,3.73,3.73,0,0,0,1.2-2.56C14.92,25,15.35,25,16,25c2.62,0,5.25,0,7.87,0,4.09,0,8.17,0,12.26,0,.72,0,1.15.07,1.2,1a3.67,3.67,0,0,0,1.23,2.54,1.69,1.69,0,0,1,.53,1.42c0,6.11,0,12.22,0,18.34a1.51,1.51,0,0,1-.9,1.56C36.1,51,36.11,51,36.11,48.62c0-3.79,0-7.58,0-11.37,0-.29,0-.59,0-.89a1.06,1.06,0,0,0-1-1.11,1.15,1.15,0,0,0-1.31,1,5,5,0,0,0-.06,1.09c0,4.72,0,9.44,0,14.16a1.35,1.35,0,0,1-.82,1.4C32.07,53.27,31.29,53.77,30.3,54.34Z"/><path class="cls-3" d="M38.41,22.69c-.2.22-.49.42-.57.68-.28,1-1,1.09-1.9,1.08q-9.94,0-19.91,0a1.47,1.47,0,0,1-1.6-.92,3.4,3.4,0,0,0-5.87-.62.38.38,0,0,0-.08.17,3.55,3.55,0,0,1-.05.57c.07-.16.23-.22.37-.31a3,3,0,0,1,3.88-.92,3.39,3.39,0,0,1,1.55,3.94c-.9,3.27-4.84,4.18-7.55,1.74A5.9,5.9,0,0,1,6.44,20a6.58,6.58,0,0,1,5.22-2.45c9.73,0,19.46,0,29.19,0,4.07,0,7.34,4.35,6.19,8.16a5.39,5.39,0,0,1-4.88,3.77,4,4,0,0,1-3.8-2.13A3.8,3.8,0,0,1,38.69,23c.36-.89,1.16-1,2-1.12a6.87,6.87,0,0,1,1.2,0,2.85,2.85,0,0,1,1.61,1.36,2.8,2.8,0,0,0-1.15-1.14,3.39,3.39,0,0,0-3,.18A3.24,3.24,0,0,1,38.41,22.69Z"/><path class="cls-3" d="M26.05,14.11c-4.15,0-8.3,0-12.45,0-.76,0-1-.18-1-1,0-2.22,0-2.22,2.18-2.22h23.5c1.37,0,1.38,0,1.37,1.33,0,2.18.29,1.86-1.92,1.87C33.82,14.12,29.93,14.11,26.05,14.11Z"/><path class="cls-3" d="M26.11,17c-2.92,0-5.84-.05-8.76,0-1,0-1-.46-1-1.19s-.14-1.27.95-1.26q8.82.07,17.63,0c1.07,0,.94.57,1,1.25s0,1.23-1,1.2C32,16.93,29,17,26.11,17Z"/><path class="cls-2" d="M38.41,22.69a3.26,3.26,0,0,1,4.07-.81c0,.38-.2.38-.47.27a3.91,3.91,0,0,0-3.32.82Z"/><path class="cls-2" d="M8.8,23.34c-.07.32-.15.63-.22.95s0,.61-.38.51S8,24.36,8,24.13a2.13,2.13,0,0,1,.54-1.22Z"/><path class="cls-2" d="M26.11,29.89h9.17a5.22,5.22,0,0,1,.79,0,.38.38,0,0,1,.29.21c0,.19-.12.3-.29.32s-.46,0-.7,0H16.85a1.51,1.51,0,0,1-.3,0c-.27,0-.7.1-.67-.35s.43-.23.67-.23Z"/><path class="cls-2" d="M42,22.15l.47-.27a2.58,2.58,0,0,1,1.38,2.84A3.87,3.87,0,0,0,42,22.15Z"/></svg>