<svg id="Layer_1" data-name="Layer 1" xmlns="http://www.w3.org/2000/svg" viewBox="0 0 202.3 52.76"><defs><style>.cls-1{fill:#111;}.cls-2{fill:#d99578;}.cls-3{fill:#fefefe;}</style></defs><path class="cls-1" d="M55.31,39.75a5.3,5.3,0,0,0,.5-1,6.22,6.22,0,0,0,.44-1.59c.15-.93.31-2,.49-3.15s.37-2.39.56-3.68.39-2.59.59-3.93.38-2.66.56-4,.35-2.56.52-3.77.31-2.31.45-3.31.24-1.87.33-2.61.15-1.3.19-1.67h2.54L75.07,34.67,87.56,11.13h1.91l3.28,23.78q.14,1.13.3,1.92c.11.53.21,1,.32,1.37a9.41,9.41,0,0,0,.31.94,5.09,5.09,0,0,0,.29.61v.08h-5v-.08a3.49,3.49,0,0,0,.19-.72,6.83,6.83,0,0,0,.09-1.2c0-.17,0-.35,0-.53s0-.38-.06-.59L86.58,17.53,74.77,39.75l-1.38-.16L61.5,17.33c-.47,3.16-.88,6.09-1.22,8.77-.15,1.15-.3,2.29-.44,3.43s-.28,2.21-.39,3.2-.21,1.86-.27,2.61-.1,1.31-.1,1.67,0,.85,0,1.2.05.64.08.88.08.53.12.74h-4Z"/><path class="cls-1" d="M96.19,29.54A10.31,10.31,0,0,1,99.35,22a10.72,10.72,0,0,1,3.47-2.23,11.54,11.54,0,0,1,4.3-.8,12,12,0,0,1,4.26.75,10.28,10.28,0,0,1,3.47,2.14,9.69,9.69,0,0,1,2.33,3.36,11.67,11.67,0,0,1,.13,8.41A9.68,9.68,0,0,1,115.19,37a10.21,10.21,0,0,1-3.43,2.33,12.72,12.72,0,0,1-8.9.13,10.18,10.18,0,0,1-3.46-2.12A10.08,10.08,0,0,1,97.05,34,11.09,11.09,0,0,1,96.19,29.54Zm11.35,9.19a6,6,0,0,0,2.62-.56,5.72,5.72,0,0,0,2-1.62A7.88,7.88,0,0,0,113.55,34a11.46,11.46,0,0,0,.48-3.45,16.46,16.46,0,0,0-.46-4,10,10,0,0,0-1.37-3.2,6.31,6.31,0,0,0-5.52-2.88,6.21,6.21,0,0,0-2.6.55,5.86,5.86,0,0,0-2,1.6,7.37,7.37,0,0,0-1.35,2.55,11.32,11.32,0,0,0-.48,3.43,16.2,16.2,0,0,0,.47,4,10.21,10.21,0,0,0,1.39,3.23A6.68,6.68,0,0,0,104.35,38,6.36,6.36,0,0,0,107.54,38.73Z"/><path class="cls-1" d="M123.74,38.27h6a21.46,21.46,0,0,0,2.88-.17,22.22,22.22,0,0,0,2.28-.39,14.19,14.19,0,0,0,2-.58L136,40l-.83-.05-1.24-.06-1.23,0H118.94v-.5l12.93-18.44h-4.19a22.18,22.18,0,0,0-3.05.19c-.93.11-1.73.25-2.41.4a16.88,16.88,0,0,0-2.16.56l1.3-2.87a6.06,6.06,0,0,0,.83.06l1.25.05c.44,0,.85,0,1.23,0h12.06v.36Z"/><path class="cls-1" d="M140.1,27.16c0-1.13,0-2.12,0-3s-.08-1.58-.12-2.19-.11-1.13-.18-1.55-.15-.76-.23-1v-.08h4.62v.08a10.19,10.19,0,0,0-.22,1c-.07.42-.13.93-.18,1.55s-.09,1.34-.12,2.19,0,1.84,0,3V32c0,1.13,0,2.12,0,3s.07,1.58.12,2.19.11,1.13.18,1.54a9.64,9.64,0,0,0,.22,1v.08h-4.62v-.08c.08-.28.15-.62.23-1s.13-.93.18-1.54.08-1.34.12-2.19,0-1.84,0-3Zm-.42-13.89a1.93,1.93,0,0,1,.17-.83,2.12,2.12,0,0,1,.45-.68,1.86,1.86,0,0,1,.67-.46,2.16,2.16,0,0,1,2.38.46,2.15,2.15,0,0,1,.46.68,1.93,1.93,0,0,1,.17.83,2.12,2.12,0,0,1-2.16,2.16,2.15,2.15,0,0,1-.85-.17,2,2,0,0,1-.67-.46,2.12,2.12,0,0,1-.45-.68A2,2,0,0,1,139.68,13.27Z"/><path class="cls-1" d="M152.41,32.83a5.94,5.94,0,0,0,1.05,3.88A3.52,3.52,0,0,0,156.29,38a4.63,4.63,0,0,0,1.45-.27,11.5,11.5,0,0,0,1.65-.72,16.68,16.68,0,0,0,1.7-1.05,14.32,14.32,0,0,0,1.57-1.28c0-.39,0-.8,0-1.23V27.16c0-1.13,0-2.12,0-3s-.07-1.58-.12-2.19-.11-1.13-.18-1.55a9.92,9.92,0,0,0-.23-1v-.08h4.62v.08a10.19,10.19,0,0,0-.22,1c-.06.42-.12.93-.18,1.55s-.09,1.34-.12,2.19,0,1.84,0,3V32c0,1.13,0,2.12,0,3s.07,1.58.12,2.19.12,1.13.18,1.54a9.64,9.64,0,0,0,.22,1v.08h-4.62v-.08c.08-.33.16-.76.25-1.28a17.39,17.39,0,0,0,.19-2q-.83.7-1.77,1.38a18.49,18.49,0,0,1-2,1.22,12.5,12.5,0,0,1-2.09.87,6.88,6.88,0,0,1-2.07.33,5.93,5.93,0,0,1-2.65-.54,5,5,0,0,1-1.78-1.42,5.54,5.54,0,0,1-1-2,8.45,8.45,0,0,1-.31-2.3V27.16c0-1.13,0-2.12,0-3s-.07-1.58-.12-2.19-.12-1.13-.18-1.55a10.19,10.19,0,0,0-.22-1v-.08H153v.08a10.19,10.19,0,0,0-.22,1c-.07.42-.13.93-.18,1.55s-.09,1.34-.12,2.19,0,1.84,0,3Z"/><path class="cls-1" d="M184.86,26.34a8.49,8.49,0,0,0-.27-2.28,4.38,4.38,0,0,0-.78-1.59,3.12,3.12,0,0,0-1.23-.94,3.94,3.94,0,0,0-1.6-.31,4.37,4.37,0,0,0-1.34.24,9,9,0,0,0-1.53.65,14.81,14.81,0,0,0-1.59.95A15.24,15.24,0,0,0,175,24.22c0,.43,0,.88,0,1.37V32c0,1.13,0,2.12,0,3s.07,1.58.12,2.19.12,1.13.18,1.54a9.64,9.64,0,0,0,.22,1v.08h-4.62v-.08a9.38,9.38,0,0,0,.23-1c.07-.41.13-.93.18-1.54s.09-1.34.12-2.19,0-1.84,0-3V27.16c0-1.13,0-2.12,0-3s-.07-1.58-.12-2.19-.11-1.13-.18-1.55a9.92,9.92,0,0,0-.23-1v-.08h4.62v.08a6.53,6.53,0,0,0-.25,1.17c-.06.48-.12,1.08-.19,1.8.54-.43,1.11-.85,1.73-1.27a16.3,16.3,0,0,1,1.89-1.1,12.39,12.39,0,0,1,2-.78,6.58,6.58,0,0,1,1.94-.3,6.27,6.27,0,0,1,2,.3,5.26,5.26,0,0,1,1.54.82,5.18,5.18,0,0,1,1.12,1.22,5.9,5.9,0,0,1,.69,1.51c.54-.47,1.14-.93,1.79-1.4a18.84,18.84,0,0,1,2-1.23,13.56,13.56,0,0,1,2.1-.88,7.13,7.13,0,0,1,2.09-.34,6,6,0,0,1,2.66.54,5.23,5.23,0,0,1,1.78,1.42,5.71,5.71,0,0,1,1,2,8.48,8.48,0,0,1,.31,2.29V32c0,1.13,0,2.12,0,3s.07,1.58.12,2.19.12,1.13.19,1.54a9.38,9.38,0,0,0,.23,1v.08h-4.64v-.08c.08-.28.15-.62.23-1s.13-.93.19-1.54.09-1.34.12-2.19,0-1.84,0-3V26.34a5.92,5.92,0,0,0-1.06-3.88,3.56,3.56,0,0,0-2.85-1.24,4.55,4.55,0,0,0-1.37.24,9.6,9.6,0,0,0-1.55.66,15.17,15.17,0,0,0-1.6,1,12.52,12.52,0,0,0-1.5,1.17,3.88,3.88,0,0,1,0,.48V32c0,1.13,0,2.12.05,3s.07,1.58.12,2.19a12.63,12.63,0,0,0,.18,1.54,9.38,9.38,0,0,0,.23,1v.08H184.3v-.08a7.7,7.7,0,0,0,.22-1c.07-.41.13-.93.18-1.54s.1-1.34.12-2.19,0-1.84,0-3Z"/><path class="cls-2" d="M0,39.26V13.5a2.62,2.62,0,0,1,1.6-2C7.78,8,13.92,4.39,20.06.81A13.87,13.87,0,0,1,22.26,0h1.4c2,.41,3.53,1.62,5.21,2.58,5.23,3,10.43,6.07,15.67,9.06a2.51,2.51,0,0,1,1.38,1.86V39.26a2.64,2.64,0,0,1-1.61,2C38.14,44.78,32,48.37,25.85,52a13.41,13.41,0,0,1-2.19.81h-1.4c-2-.41-3.53-1.62-5.21-2.58-5.24-3-10.43-6.07-15.67-9.06A2.48,2.48,0,0,1,0,39.26Z"/><path class="cls-3" d="M26.64,47.78v-15a5.21,5.21,0,0,0,0-.79,1,1,0,0,0-1.12-1,1,1,0,0,0-1,1.09c0,1.2,0,2.4,0,3.59V48.21a1.63,1.63,0,0,1-1.58,1.56,1.6,1.6,0,0,1-1.5-1.57V32.87c0-.32,0-.65,0-1a.92.92,0,0,0-1-.91,1,1,0,0,0-1.08.83,3.58,3.58,0,0,0,0,.87V46.8c0,1,0,.92-.93.52-1.68-.68-2.22-1.76-2.13-3.61.18-3.76.05-7.53.05-11.3,0-.58-.06-1.14-.7-1.37-.81-.29-1.41.22-1.41,1.22q0,4.35,0,8.68c0,1,0,1.93,0,2.89s0,.93-.95.53c-1.42-.59-1.8-1.51-1.76-3,.11-5,0-9.93,0-14.9A1.69,1.69,0,0,1,12,25a3.26,3.26,0,0,0,1.06-2.25c0-.78.42-.81,1-.8,2.3,0,4.61,0,6.92,0,3.59,0,7.18,0,10.78,0,.63,0,1,.06,1.05.85a3.27,3.27,0,0,0,1.09,2.24,1.52,1.52,0,0,1,.46,1.25c0,5.37,0,10.75,0,16.12a1.36,1.36,0,0,1-.79,1.38c-1.87,1-1.85,1-1.85-1.06v-10c0-.26,0-.53,0-.79a.91.91,0,0,0-.91-1,1,1,0,0,0-1.15.84,4.39,4.39,0,0,0-.05,1c0,4.15,0,8.3,0,12.45a1.18,1.18,0,0,1-.72,1.23C28.2,46.84,27.52,47.28,26.64,47.78Z"/><path class="cls-3" d="M33.77,20c-.17.2-.43.37-.49.6-.25.9-.88.95-1.67.95-5.84,0-11.68,0-17.51,0a1.3,1.3,0,0,1-1.41-.81,3,3,0,0,0-5.16-.54.21.21,0,0,0-.07.15,2.83,2.83,0,0,1,0,.5.72.72,0,0,1,.33-.27,2.62,2.62,0,0,1,3.41-.82,3,3,0,0,1,1.36,3.47c-.78,2.87-4.25,3.67-6.64,1.53a5.21,5.21,0,0,1-.21-7.14,5.77,5.77,0,0,1,4.59-2.14H35.92a5.82,5.82,0,0,1,5.44,7.17,4.73,4.73,0,0,1-4.29,3.32,3.54,3.54,0,0,1-3.34-1.87A3.35,3.35,0,0,1,34,20.2c.32-.78,1-.9,1.73-1a6.25,6.25,0,0,1,1.06,0,2.53,2.53,0,0,1,1.42,1.19,2.4,2.4,0,0,0-1-1,3,3,0,0,0-2.67.16A2.76,2.76,0,0,1,33.77,20Z"/><path class="cls-3" d="M22.9,12.41c-3.64,0-7.29,0-10.94,0-.67,0-.92-.17-.91-.88,0-2,0-2,1.92-2H33.64c1.2,0,1.21,0,1.2,1.18,0,1.92.26,1.63-1.69,1.64C29.74,12.42,26.32,12.41,22.9,12.41Z"/><path class="cls-3" d="M23,14.93c-2.57,0-5.14,0-7.71,0-.89,0-.91-.4-.88-1s-.12-1.12.83-1.11q7.76.06,15.5,0c.95,0,.84.51.85,1.1s0,1.08-.88,1.06C28.1,14.89,25.53,14.93,23,14.93Z"/><path class="cls-2" d="M33.77,20a2.89,2.89,0,0,1,3.59-.71c0,.34-.18.33-.42.23A3.43,3.43,0,0,0,34,20.2Z"/><path class="cls-2" d="M7.74,20.53c-.07.27-.13.55-.19.82s0,.54-.34.46-.21-.39-.16-.59a1.85,1.85,0,0,1,.48-1.07Z"/><path class="cls-2" d="M23,26.29H31a4.1,4.1,0,0,1,.7,0,.34.34,0,0,1,.25.18c0,.17-.1.26-.25.28a4.22,4.22,0,0,1-.61,0H14.82a2.43,2.43,0,0,1-.27,0c-.23,0-.62.08-.58-.31s.37-.21.59-.21Z"/><path class="cls-2" d="M36.94,19.47l.42-.23a2.29,2.29,0,0,1,1.21,2.5A3.47,3.47,0,0,0,36.94,19.47Z"/></svg>